<svg width="37" height="18" viewBox="0 0 37 18" fill="none" xmlns="http://www.w3.org/2000/svg">
<path d="M3.90909 6V5.136L3.85309 4.952V3.44C3.85309 3.14667 3.76509 2.92 3.58909 2.76C3.41309 2.59467 3.14643 2.512 2.78909 2.512C2.54909 2.512 2.31176 2.54933 2.07709 2.624C1.84776 2.69867 1.65309 2.80267 1.49309 2.936L1.10109 2.208C1.33043 2.032 1.60243 1.90133 1.91709 1.816C2.23709 1.72533 2.56776 1.68 2.90909 1.68C3.52776 1.68 4.00509 1.82933 4.34109 2.128C4.68243 2.42133 4.85309 2.87733 4.85309 3.496V6H3.90909ZM2.56509 6.056C2.24509 6.056 1.96509 6.00267 1.72509 5.896C1.48509 5.784 1.29843 5.632 1.16509 5.44C1.03709 5.24267 0.973094 5.02133 0.973094 4.776C0.973094 4.536 1.02909 4.32 1.14109 4.128C1.25843 3.936 1.44776 3.784 1.70909 3.672C1.97043 3.56 2.31709 3.504 2.74909 3.504H3.98909V4.168H2.82109C2.47976 4.168 2.25043 4.224 2.13309 4.336C2.01576 4.44267 1.95709 4.576 1.95709 4.736C1.95709 4.91733 2.02909 5.06133 2.17309 5.168C2.31709 5.27467 2.51709 5.328 2.77309 5.328C3.01843 5.328 3.23709 5.272 3.42909 5.16C3.62643 5.048 3.76776 4.88267 3.85309 4.664L4.02109 5.264C3.92509 5.51467 3.75176 5.70933 3.50109 5.848C3.25576 5.98667 2.94376 6.056 2.56509 6.056ZM7.95228 6.056C7.54161 6.056 7.17095 5.96533 6.84028 5.784C6.51495 5.59733 6.25895 5.34133 6.07228 5.016C5.88561 4.69067 5.79228 4.30667 5.79228 3.864C5.79228 3.42133 5.88561 3.03733 6.07228 2.712C6.25895 2.38667 6.51495 2.13333 6.84028 1.952C7.17095 1.77067 7.54161 1.68 7.95228 1.68C8.30961 1.68 8.62961 1.76 8.91228 1.92C9.19495 2.07467 9.41895 2.312 9.58428 2.632C9.74961 2.952 9.83228 3.36267 9.83228 3.864C9.83228 4.36 9.75228 4.77067 9.59228 5.096C9.43228 5.416 9.21095 5.656 8.92828 5.816C8.64561 5.976 8.32028 6.056 7.95228 6.056ZM8.07228 5.2C8.31228 5.2 8.52561 5.14667 8.71228 5.04C8.90428 4.93333 9.05628 4.77867 9.16828 4.576C9.28561 4.37333 9.34428 4.136 9.34428 3.864C9.34428 3.58667 9.28561 3.34933 9.16828 3.152C9.05628 2.94933 8.90428 2.79467 8.71228 2.688C8.52561 2.58133 8.31228 2.528 8.07228 2.528C7.83228 2.528 7.61628 2.58133 7.42428 2.688C7.23761 2.79467 7.08561 2.94933 6.96828 3.152C6.85628 3.34933 6.80028 3.58667 6.80028 3.864C6.80028 4.136 6.85628 4.37333 6.96828 4.576C7.08561 4.77867 7.23761 4.93333 7.42428 5.04C7.61628 5.14667 7.83228 5.2 8.07228 5.2ZM9.36828 6V4.992L9.40828 3.856L9.32828 2.72V0.0639997H10.3203V6H9.36828ZM12.7725 6L10.9405 1.728H11.9805L13.5565 5.496H13.0445L14.6765 1.728H15.6365L13.8045 6H12.7725ZM18.7607 6V5.136L18.7047 4.952V3.44C18.7047 3.14667 18.6167 2.92 18.4407 2.76C18.2647 2.59467 17.998 2.512 17.6407 2.512C17.4007 2.512 17.1633 2.54933 16.9287 2.624C16.6993 2.69867 16.5047 2.80267 16.3447 2.936L15.9527 2.208C16.182 2.032 16.454 1.90133 16.7687 1.816C17.0887 1.72533 17.4193 1.68 17.7607 1.68C18.3793 1.68 18.8567 1.82933 19.1927 2.128C19.534 2.42133 19.7047 2.87733 19.7047 3.496V6H18.7607ZM17.4167 6.056C17.0967 6.056 16.8167 6.00267 16.5767 5.896C16.3367 5.784 16.15 5.632 16.0167 5.44C15.8887 5.24267 15.8247 5.02133 15.8247 4.776C15.8247 4.536 15.8807 4.32 15.9927 4.128C16.11 3.936 16.2993 3.784 16.5607 3.672C16.822 3.56 17.1687 3.504 17.6007 3.504H18.8407V4.168H17.6727C17.3313 4.168 17.102 4.224 16.9847 4.336C16.8673 4.44267 16.8087 4.576 16.8087 4.736C16.8087 4.91733 16.8807 5.06133 17.0247 5.168C17.1687 5.27467 17.3687 5.328 17.6247 5.328C17.87 5.328 18.0887 5.272 18.2807 5.16C18.478 5.048 18.6193 4.88267 18.7047 4.664L18.8727 5.264C18.7767 5.51467 18.6033 5.70933 18.3527 5.848C18.1073 5.98667 17.7953 6.056 17.4167 6.056ZM23.412 1.68C23.7534 1.68 24.0574 1.74667 24.324 1.88C24.596 2.01333 24.8094 2.21867 24.964 2.496C25.1187 2.768 25.196 3.12 25.196 3.552V6H24.196V3.68C24.196 3.30133 24.1054 3.01867 23.924 2.832C23.748 2.64533 23.5 2.552 23.18 2.552C22.9454 2.552 22.7374 2.6 22.556 2.696C22.3747 2.792 22.2334 2.936 22.132 3.128C22.036 3.31467 21.988 3.552 21.988 3.84V6H20.988V1.728H21.94V2.88L21.772 2.528C21.9214 2.256 22.1374 2.048 22.42 1.904C22.708 1.75467 23.0387 1.68 23.412 1.68ZM28.4324 6.056C27.9844 6.056 27.5844 5.96267 27.2324 5.776C26.8857 5.584 26.6137 5.32267 26.4164 4.992C26.2191 4.66133 26.1204 4.28533 26.1204 3.864C26.1204 3.43733 26.2191 3.06133 26.4164 2.736C26.6137 2.40533 26.8857 2.14667 27.2324 1.96C27.5844 1.77333 27.9844 1.68 28.4324 1.68C28.8484 1.68 29.2137 1.76533 29.5284 1.936C29.8484 2.10133 30.0911 2.34667 30.2564 2.672L29.4884 3.12C29.3604 2.91733 29.2031 2.768 29.0164 2.672C28.8351 2.576 28.6377 2.528 28.4244 2.528C28.1791 2.528 27.9577 2.58133 27.7604 2.688C27.5631 2.79467 27.4084 2.94933 27.2964 3.152C27.1844 3.34933 27.1284 3.58667 27.1284 3.864C27.1284 4.14133 27.1844 4.38133 27.2964 4.584C27.4084 4.78133 27.5631 4.93333 27.7604 5.04C27.9577 5.14667 28.1791 5.2 28.4244 5.2C28.6377 5.2 28.8351 5.152 29.0164 5.056C29.2031 4.96 29.3604 4.81067 29.4884 4.608L30.2564 5.056C30.0911 5.376 29.8484 5.624 29.5284 5.8C29.2137 5.97067 28.8484 6.056 28.4324 6.056ZM33.0663 6.056C32.5917 6.056 32.1757 5.96267 31.8183 5.776C31.4663 5.584 31.1917 5.32267 30.9943 4.992C30.8023 4.66133 30.7063 4.28533 30.7063 3.864C30.7063 3.43733 30.7997 3.06133 30.9863 2.736C31.1783 2.40533 31.4397 2.14667 31.7703 1.96C32.1063 1.77333 32.4877 1.68 32.9143 1.68C33.3303 1.68 33.701 1.77067 34.0263 1.952C34.3517 2.13333 34.6077 2.38933 34.7943 2.72C34.981 3.05067 35.0743 3.44 35.0743 3.888C35.0743 3.93067 35.0717 3.97867 35.0663 4.032C35.0663 4.08533 35.0637 4.136 35.0583 4.184H31.4983V3.52H34.5303L34.1383 3.728C34.1437 3.48267 34.093 3.26667 33.9863 3.08C33.8797 2.89333 33.733 2.74667 33.5463 2.64C33.365 2.53333 33.1543 2.48 32.9143 2.48C32.669 2.48 32.453 2.53333 32.2663 2.64C32.085 2.74667 31.941 2.896 31.8343 3.088C31.733 3.27467 31.6823 3.496 31.6823 3.752V3.912C31.6823 4.168 31.741 4.39467 31.8583 4.592C31.9757 4.78933 32.141 4.94133 32.3543 5.048C32.5677 5.15467 32.813 5.208 33.0903 5.208C33.3303 5.208 33.5463 5.17067 33.7383 5.096C33.9303 5.02133 34.101 4.904 34.2503 4.744L34.7863 5.36C34.5943 5.584 34.3517 5.75733 34.0583 5.88C33.7703 5.99733 33.4397 6.056 33.0663 6.056ZM2.46931 16.056C2.12265 16.056 1.80531 15.976 1.51731 15.816C1.23465 15.656 1.00798 15.416 0.837313 15.096C0.671979 14.7707 0.589313 14.36 0.589313 13.864C0.589313 13.3627 0.669313 12.952 0.829313 12.632C0.994646 12.312 1.21865 12.0747 1.50131 11.92C1.78398 11.76 2.10665 11.68 2.46931 11.68C2.89065 11.68 3.26131 11.7707 3.58131 11.952C3.90665 12.1333 4.16265 12.3867 4.34931 12.712C4.54131 13.0373 4.63731 13.4213 4.63731 13.864C4.63731 14.3067 4.54131 14.6933 4.34931 15.024C4.16265 15.3493 3.90665 15.6027 3.58131 15.784C3.26131 15.9653 2.89065 16.056 2.46931 16.056ZM0.101313 17.552V11.728H1.05331V12.736L1.02131 13.872L1.10131 15.008V17.552H0.101313ZM2.35731 15.2C2.59731 15.2 2.81065 15.1467 2.99731 15.04C3.18931 14.9333 3.34131 14.7787 3.45331 14.576C3.56531 14.3733 3.62131 14.136 3.62131 13.864C3.62131 13.5867 3.56531 13.3493 3.45331 13.152C3.34131 12.9493 3.18931 12.7947 2.99731 12.688C2.81065 12.5813 2.59731 12.528 2.35731 12.528C2.11731 12.528 1.90131 12.5813 1.70931 12.688C1.51731 12.7947 1.36531 12.9493 1.25331 13.152C1.14131 13.3493 1.08531 13.5867 1.08531 13.864C1.08531 14.136 1.14131 14.3733 1.25331 14.576C1.36531 14.7787 1.51731 14.9333 1.70931 15.04C1.90131 15.1467 2.11731 15.2 2.35731 15.2ZM8.163 16V15.136L8.107 14.952V13.44C8.107 13.1467 8.019 12.92 7.843 12.76C7.667 12.5947 7.40033 12.512 7.043 12.512C6.803 12.512 6.56567 12.5493 6.331 12.624C6.10167 12.6987 5.907 12.8027 5.747 12.936L5.355 12.208C5.58433 12.032 5.85633 11.9013 6.171 11.816C6.491 11.7253 6.82167 11.68 7.163 11.68C7.78167 11.68 8.259 11.8293 8.595 12.128C8.93633 12.4213 9.107 12.8773 9.107 13.496V16H8.163ZM6.819 16.056C6.499 16.056 6.219 16.0027 5.979 15.896C5.739 15.784 5.55233 15.632 5.419 15.44C5.291 15.2427 5.227 15.0213 5.227 14.776C5.227 14.536 5.283 14.32 5.395 14.128C5.51233 13.936 5.70167 13.784 5.963 13.672C6.22433 13.56 6.571 13.504 7.003 13.504H8.243V14.168H7.075C6.73367 14.168 6.50433 14.224 6.387 14.336C6.26967 14.4427 6.211 14.576 6.211 14.736C6.211 14.9173 6.283 15.0613 6.427 15.168C6.571 15.2747 6.771 15.328 7.027 15.328C7.27233 15.328 7.491 15.272 7.683 15.16C7.88033 15.048 8.02167 14.8827 8.107 14.664L8.275 15.264C8.179 15.5147 8.00567 15.7093 7.755 15.848C7.50967 15.9867 7.19767 16.056 6.819 16.056ZM10.6643 17.608C10.4563 17.608 10.2483 17.5733 10.0403 17.504C9.83225 17.4347 9.65892 17.3387 9.52025 17.216L9.92025 16.48C10.0216 16.5707 10.1363 16.6427 10.2643 16.696C10.3923 16.7493 10.5229 16.776 10.6562 16.776C10.8376 16.776 10.9843 16.7307 11.0963 16.64C11.2083 16.5493 11.3123 16.3973 11.4083 16.184L11.6562 15.624L11.7363 15.504L13.3523 11.728H14.3123L12.3123 16.344C12.1789 16.664 12.0296 16.9173 11.8643 17.104C11.7043 17.2907 11.5229 17.4213 11.3203 17.496C11.1229 17.5707 10.9043 17.608 10.6643 17.608ZM11.5443 16.152L9.61625 11.728H10.6562L12.2243 15.416L11.5443 16.152ZM20.3293 11.68C20.6706 11.68 20.9719 11.7467 21.2333 11.88C21.4999 12.0133 21.7079 12.2187 21.8573 12.496C22.0066 12.768 22.0813 13.12 22.0813 13.552V16H21.0813V13.68C21.0813 13.3013 20.9986 13.0187 20.8333 12.832C20.6679 12.6453 20.4306 12.552 20.1213 12.552C19.9026 12.552 19.7079 12.6 19.5373 12.696C19.3719 12.792 19.2413 12.9333 19.1453 13.12C19.0546 13.3067 19.0093 13.544 19.0093 13.832V16H18.0093V13.68C18.0093 13.3013 17.9266 13.0187 17.7613 12.832C17.5959 12.6453 17.3586 12.552 17.0493 12.552C16.8306 12.552 16.6359 12.6 16.4653 12.696C16.2999 12.792 16.1693 12.9333 16.0733 13.12C15.9826 13.3067 15.9373 13.544 15.9373 13.832V16H14.9373V11.728H15.8893V12.864L15.7213 12.528C15.8653 12.2507 16.0733 12.04 16.3453 11.896C16.6226 11.752 16.9373 11.68 17.2893 11.68C17.6893 11.68 18.0359 11.7787 18.3293 11.976C18.6279 12.1733 18.8253 12.472 18.9213 12.872L18.5293 12.736C18.6679 12.416 18.8973 12.16 19.2173 11.968C19.5373 11.776 19.9079 11.68 20.3293 11.68ZM25.3749 16.056C24.9003 16.056 24.4843 15.9627 24.1269 15.776C23.7749 15.584 23.5003 15.3227 23.3029 14.992C23.1109 14.6613 23.0149 14.2853 23.0149 13.864C23.0149 13.4373 23.1083 13.0613 23.2949 12.736C23.4869 12.4053 23.7483 12.1467 24.0789 11.96C24.4149 11.7733 24.7963 11.68 25.2229 11.68C25.6389 11.68 26.0096 11.7707 26.3349 11.952C26.6603 12.1333 26.9163 12.3893 27.1029 12.72C27.2896 13.0507 27.3829 13.44 27.3829 13.888C27.3829 13.9307 27.3803 13.9787 27.3749 14.032C27.3749 14.0853 27.3723 14.136 27.3669 14.184H23.8069V13.52H26.8389L26.4469 13.728C26.4523 13.4827 26.4016 13.2667 26.2949 13.08C26.1883 12.8933 26.0416 12.7467 25.8549 12.64C25.6736 12.5333 25.4629 12.48 25.2229 12.48C24.9776 12.48 24.7616 12.5333 24.5749 12.64C24.3936 12.7467 24.2496 12.896 24.1429 13.088C24.0416 13.2747 23.9909 13.496 23.9909 13.752V13.912C23.9909 14.168 24.0496 14.3947 24.1669 14.592C24.2843 14.7893 24.4496 14.9413 24.6629 15.048C24.8763 15.1547 25.1216 15.208 25.3989 15.208C25.6389 15.208 25.8549 15.1707 26.0469 15.096C26.2389 15.0213 26.4096 14.904 26.5589 14.744L27.0949 15.36C26.9029 15.584 26.6603 15.7573 26.3669 15.88C26.0789 15.9973 25.7483 16.056 25.3749 16.056ZM30.7675 11.68C31.1088 11.68 31.4128 11.7467 31.6795 11.88C31.9515 12.0133 32.1648 12.2187 32.3195 12.496C32.4742 12.768 32.5515 13.12 32.5515 13.552V16H31.5515V13.68C31.5515 13.3013 31.4608 13.0187 31.2795 12.832C31.1035 12.6453 30.8555 12.552 30.5355 12.552C30.3008 12.552 30.0928 12.6 29.9115 12.696C29.7302 12.792 29.5888 12.936 29.4875 13.128C29.3915 13.3147 29.3435 13.552 29.3435 13.84V16H28.3435V11.728H29.2955V12.88L29.1275 12.528C29.2768 12.256 29.4928 12.048 29.7755 11.904C30.0635 11.7547 30.3942 11.68 30.7675 11.68ZM35.4281 16.056C34.9587 16.056 34.5961 15.936 34.3401 15.696C34.0841 15.4507 33.9561 15.0907 33.9561 14.616V10.784H34.9561V14.592C34.9561 14.7947 35.0067 14.952 35.1081 15.064C35.2147 15.176 35.3614 15.232 35.5481 15.232C35.7721 15.232 35.9587 15.1733 36.1081 15.056L36.3881 15.768C36.2707 15.864 36.1267 15.936 35.9561 15.984C35.7854 16.032 35.6094 16.056 35.4281 16.056ZM33.2521 12.56V11.76H36.1001V12.56H33.2521Z" fill="white"/>
</svg>
