<svg width="13" height="13" viewBox="0 0 13 13" fill="none" xmlns="http://www.w3.org/2000/svg">
<path d="M5.79883 0C9.00151 0 11.5984 2.5962 11.5986 5.79883C11.5986 7.03904 11.2071 8.18696 10.5439 9.12988L12.3516 10.9375C12.742 11.328 12.7421 11.9611 12.3516 12.3516C11.9611 12.742 11.328 12.742 10.9375 12.3516L9.12988 10.5439C8.18696 11.2071 7.03904 11.5986 5.79883 11.5986C2.59621 11.5984 0 9.00149 0 5.79883C0.000185487 2.59632 2.59632 0.000204921 5.79883 0ZM5.79883 2C3.70088 2.0002 2.00019 3.70091 2 5.79883C2 7.89691 3.70076 9.59843 5.79883 9.59863C7.89707 9.59863 9.59863 7.89703 9.59863 5.79883C9.59845 3.70078 7.89695 2 5.79883 2Z" fill="#A0A0A0"/>
</svg>
